<svg xmlns="http://www.w3.org/2000/svg" viewBox="0 0 512 512"><defs><linearGradient id="g" x1="0" x2="1" y1="0" y2="1"><stop stop-color="#ffe89a"/><stop offset=".5" stop-color="#d99a25"/><stop offset="1" stop-color="#754309"/></linearGradient></defs><rect width="512" height="512" rx="96" fill="#030303"/><circle cx="256" cy="256" r="202" fill="none" stroke="url(#g)" stroke-width="16"/><path d="M151 350c-28-51-30-111-5-161 33-65 103-107 181-102 37 2 72 15 101 34l-60 25c-29-13-64-14-95-2-52 20-87 69-87 124 0 46 23 89 62 115l-97-33z" fill="url(#g)"/><circle cx="306" cy="226" r="59" fill="#030303" stroke="url(#g)" stroke-width="15"/><circle cx="306" cy="226" r="14" fill="#fff7d1"/><path d="M364 215h83M359 242h63M355 270h50l26 27" fill="none" stroke="url(#g)" stroke-width="9" stroke-linecap="round"/><path d="M226 350l45 76 62-96 54 57c-41 34-90 52-143 47-47-4-90-24-123-55l59-47 46 18z" fill="url(#g)"/></svg>