<svg xmlns="http://www.w3.org/2000/svg" viewBox="0 0 200 200" role="img" aria-label="COHIBA brand mark">
<defs><radialGradient id="b"><stop stop-color="#1b1407"/><stop offset="1" stop-color="#050403"/></radialGradient><linearGradient id="g" x1="0" x2="1"><stop stop-color="#f5d978"/><stop offset=".5" stop-color="#c89525"/><stop offset="1" stop-color="#f0cc62"/></linearGradient></defs>
<circle cx="100" cy="100" r="94" fill="url(#b)" stroke="#c89525" stroke-width="4"/>
<circle cx="100" cy="100" r="76" fill="none" stroke="#6f5520" stroke-width="2"/>
<path d="M136 66c-10-12-22-18-37-18-30 0-53 23-53 52s23 52 53 52c15 0 28-6 38-18l-17-15c-6 7-12 10-21 10-16 0-28-12-28-29s12-29 28-29c8 0 15 3 21 10z" fill="url(#g)"/>
<path d="M100 42v116M42 100h116" stroke="#c89525" stroke-width="3" opacity=".28"/>
<circle cx="100" cy="100" r="8" fill="#f5d978"/>
</svg>